<svg xmlns="http://www.w3.org/2000/svg" width="214.70999999999998" height="35" viewBox="0 0 214.70999999999998 35"><rect class="svg__rect" x="0" y="0" width="77.89" height="35" fill="#45A4B8"/><rect class="svg__rect" x="75.89" y="0" width="138.82" height="35" fill="#005384"/><path class="svg__text" d="M15.78 22L14.31 22L14.31 13.47L15.78 13.47L15.78 22ZM28.05 22L26.57 22L26.57 13.47L28.05 13.47L28.05 17.02L31.87 17.02L31.87 13.47L33.34 13.47L33.34 22L31.87 22L31.87 18.21L28.05 18.21L28.05 22ZM38.86 22L37.32 22L40.54 13.47L41.87 13.47L45.10 22L43.56 22L42.86 20.01L39.55 20.01L38.86 22ZM41.21 15.28L39.97 18.82L42.44 18.82L41.21 15.28ZM50.74 14.66L48.10 14.66L48.10 13.47L54.87 13.47L54.87 14.66L52.21 14.66L52.21 22L50.74 22L50.74 14.66ZM64.20 22L58.63 22L58.63 13.47L64.16 13.47L64.16 14.66L60.11 14.66L60.11 17.02L63.61 17.02L63.61 18.19L60.11 18.19L60.11 20.82L64.20 20.82L64.20 22Z" fill="#FFFFFF"/><path class="svg__text" d="M96.82 22L90.08 22L90.08 13.60L96.67 13.60L96.67 15.44L92.43 15.44L92.43 16.85L96.17 16.85L96.17 18.63L92.43 18.63L92.43 20.17L96.82 20.17L96.82 22ZM104.21 22L100.62 13.60L103.19 13.60L105.47 19.07L107.80 13.60L110.15 13.60L106.55 22L104.21 22ZM121.04 22L114.30 22L114.30 13.60L120.89 13.60L120.89 15.44L116.66 15.44L116.66 16.85L120.39 16.85L120.39 18.63L116.66 18.63L116.66 20.17L121.04 20.17L121.04 22ZM128.23 22L125.85 22L125.85 13.60L129.69 13.60Q130.84 13.60 131.67 13.98Q132.51 14.35 132.97 15.06Q133.43 15.76 133.43 16.71L133.43 16.71Q133.43 17.62 133.00 18.30Q132.57 18.98 131.78 19.36L131.78 19.36L133.59 22L131.05 22L129.52 19.77L128.23 19.77L128.23 22ZM128.23 15.47L128.23 17.93L129.55 17.93Q130.28 17.93 130.65 17.61Q131.02 17.29 131.02 16.71L131.02 16.71Q131.02 16.12 130.65 15.79Q130.28 15.47 129.55 15.47L129.55 15.47L128.23 15.47ZM140.34 18.95L137.13 13.60L139.64 13.60L141.63 16.94L143.63 13.60L145.93 13.60L142.71 18.99L142.71 22L140.34 22L140.34 18.95ZM151.81 15.48L149.22 15.48L149.22 13.60L156.75 13.60L156.75 15.48L154.18 15.48L154.18 22L151.81 22L151.81 15.48ZM163.50 22L161.12 22L161.12 13.60L163.50 13.60L163.50 16.76L166.74 16.76L166.74 13.60L169.11 13.60L169.11 22L166.74 22L166.74 18.72L163.50 18.72L163.50 22ZM176.65 22L174.27 22L174.27 13.60L176.65 13.60L176.65 22ZM184.16 22L181.82 22L181.82 13.60L183.78 13.60L187.49 18.07L187.49 13.60L189.82 13.60L189.82 22L187.86 22L184.16 17.52L184.16 22ZM194.55 17.80L194.55 17.80Q194.55 16.54 195.15 15.54Q195.75 14.55 196.82 13.99Q197.88 13.43 199.23 13.43L199.23 13.43Q200.40 13.43 201.34 13.83Q202.28 14.22 202.90 14.97L202.90 14.97L201.39 16.33Q200.54 15.40 199.37 15.40L199.37 15.40Q199.36 15.40 199.35 15.40L199.35 15.40Q198.27 15.40 197.61 16.06Q196.95 16.71 196.95 17.80L196.95 17.80Q196.95 18.50 197.25 19.04Q197.55 19.59 198.09 19.89Q198.63 20.20 199.33 20.20L199.33 20.20Q200.01 20.20 200.61 19.93L200.61 19.93L200.61 17.62L202.71 17.62L202.71 21.10Q201.99 21.61 201.05 21.89Q200.12 22.17 199.18 22.17L199.18 22.17Q197.86 22.17 196.80 21.61Q195.75 21.05 195.15 20.05Q194.55 19.06 194.55 17.80Z" fill="#FFFFFF" x="88.89"/></svg>